<?xml version="1.0" encoding="UTF-8"?>
<svg xmlns="http://www.w3.org/2000/svg" viewBox="0 0 1080 1080">
  <defs>
    <style>
      .cls-1 {
        stroke-width: 14.17px;
      }

      .cls-1, .cls-2 {
        fill: #fff;
        stroke: #000;
        stroke-miterlimit: 10;
      }

      .cls-2 {
        stroke-width: 2.83px;
      }
    </style>
  </defs>
  <g id="STEMS">
    <line class="cls-1" x1="553.41" y1="577.13" x2="553.41" y2="955.56"/>
    <g>
      <line class="cls-2" x1="540.19" y1="574.97" x2="400.59" y2="922.78"/>
      <line class="cls-2" x1="520.14" y1="554.15" x2="160.65" y2="682.86"/>
      <line class="cls-2" x1="569.9" y1="573.37" x2="720.83" y2="856.39"/>
      <line class="cls-2" x1="170.42" y1="629.59" x2="518.96" y2="550.11"/>
      <line class="cls-2" x1="686.59" y1="850.89" x2="567.29" y2="574.63"/>
      <line class="cls-2" x1="190.18" y1="353.38" x2="522.06" y2="526.01"/>
      <line class="cls-2" x1="576.3" y1="568.97" x2="799.23" y2="827.94"/>
      <line class="cls-2" x1="523.4" y1="560.88" x2="192.7" y2="766.59"/>
      <line class="cls-2" x1="208.24" y1="398.56" x2="520.78" y2="528.72"/>
      <line class="cls-2" x1="525.7" y1="564.15" x2="241.35" y2="789.42"/>
      <line class="cls-2" x1="726.33" y1="151.79" x2="567.59" y2="510.05"/>
      <line class="cls-2" x1="769.09" y1="225.14" x2="573.14" y2="513.14"/>
      <line class="cls-2" x1="518.1" y1="541.37" x2="108.66" y2="530.87"/>
      <line class="cls-2" x1="241.61" y1="326.4" x2="524.35" y2="522.21"/>
      <line class="cls-2" x1="195.09" y1="565.87" x2="518.16" y2="544.59"/>
      <line class="cls-2" x1="620.87" y1="925.81" x2="559.43" y2="576.97"/>
      <line class="cls-2" x1="365.62" y1="264.14" x2="533.6" y2="513.06"/>
      <line class="cls-2" x1="527.49" y1="518.3" x2="301.33" y2="308.4"/>
      <line class="cls-2" x1="180.03" y1="416.18" x2="519.93" y2="530.99"/>
      <line class="cls-2" x1="542.68" y1="575.87" x2="468.84" y2="808.99"/>
      <line class="cls-2" x1="522.15" y1="558.71" x2="290.22" y2="681.03"/>
      <line class="cls-2" x1="600.64" y1="158.22" x2="557.63" y2="507.3"/>
      <line class="cls-2" x1="847.29" y1="232.03" x2="577.55" y2="516.7"/>
      <line class="cls-2" x1="480.99" y1="886.66" x2="546.07" y2="576.76"/>
      <line class="cls-2" x1="539.19" y1="509.99" x2="375.78" y2="136.5"/>
      <line class="cls-2" x1="551.37" y1="507.09" x2="532.27" y2="162.92"/>
      <line class="cls-2" x1="546.31" y1="576.81" x2="472.05" y2="942.72"/>
      <line class="cls-2" x1="721.3" y1="789.65" x2="573.11" y2="571.42"/>
      <line class="cls-2" x1="823.47" y1="362.11" x2="582.63" y2="522.72"/>
      <line class="cls-2" x1="451.34" y1="152.48" x2="544.4" y2="508.17"/>
      <line class="cls-2" x1="223.92" y1="532.5" x2="518.11" y2="541.23"/>
      <line class="cls-2" x1="569.93" y1="131.78" x2="554.74" y2="507.07"/>
      <line class="cls-2" x1="959.95" y1="489.05" x2="588.25" y2="537.7"/>
      <line class="cls-2" x1="537.78" y1="573.9" x2="395.43" y2="863.72"/>
      <line class="cls-2" x1="518.69" y1="548.78" x2="159.9" y2="616.2"/>
      <line class="cls-2" x1="804.45" y1="688.44" x2="583.77" y2="560"/>
      <line class="cls-2" x1="931.29" y1="465.54" x2="587.86" y2="535.26"/>
      <line class="cls-2" x1="923.96" y1="583.21" x2="588.34" y2="546.14"/>
      <line class="cls-2" x1="567.06" y1="574.73" x2="669.91" y2="817.64"/>
      <line class="cls-2" x1="913.35" y1="441.41" x2="587.25" y2="532.77"/>
      <line class="cls-2" x1="530.82" y1="569.39" x2="354.45" y2="782.04"/>
      <line class="cls-2" x1="620.99" y1="168.09" x2="559.59" y2="507.6"/>
      <line class="cls-2" x1="928.82" y1="394.29" x2="586.1" y2="529.35"/>
      <line class="cls-2" x1="271.86" y1="706.6" x2="522.89" y2="560.04"/>
      <line class="cls-2" x1="812.77" y1="223.78" x2="575.57" y2="514.95"/>
      <line class="cls-2" x1="582.73" y1="137.48" x2="555.87" y2="507.13"/>
    </g>
  </g>
  <g id="CROSSES">
    <g>
      <line class="cls-2" x1="171.61" y1="652.39" x2="149.69" y2="713.33"/>
      <line class="cls-2" x1="191.12" y1="693.82" x2="130.18" y2="671.9"/>
    </g>
    <g>
      <line class="cls-2" x1="698.57" y1="832.88" x2="743.09" y2="879.9"/>
      <line class="cls-2" x1="744.34" y1="834.13" x2="697.32" y2="878.65"/>
    </g>
    <g>
      <line class="cls-2" x1="183.69" y1="600.06" x2="157.14" y2="659.12"/>
      <line class="cls-2" x1="199.95" y1="642.86" x2="140.88" y2="616.32"/>
    </g>
    <g>
      <line class="cls-2" x1="665.6" y1="826.24" x2="707.58" y2="875.54"/>
      <line class="cls-2" x1="711.24" y1="829.9" x2="661.94" y2="871.88"/>
    </g>
    <g>
      <line class="cls-2" x1="216.26" y1="334.12" x2="166.32" y2="375.34"/>
      <line class="cls-2" x1="211.9" y1="379.7" x2="170.68" y2="329.76"/>
    </g>
    <g>
      <line class="cls-2" x1="773.87" y1="807.81" x2="824.6" y2="848.07"/>
      <line class="cls-2" x1="819.37" y1="802.58" x2="779.1" y2="853.3"/>
    </g>
    <g>
      <line class="cls-2" x1="199.39" y1="734.91" x2="186.02" y2="798.27"/>
      <line class="cls-2" x1="224.39" y1="773.27" x2="161.02" y2="759.91"/>
    </g>
    <g>
      <line class="cls-2" x1="232.03" y1="376.6" x2="184.44" y2="420.52"/>
      <line class="cls-2" x1="230.2" y1="422.36" x2="186.28" y2="374.77"/>
    </g>
    <g>
      <line class="cls-2" x1="245.68" y1="757.34" x2="237.02" y2="821.51"/>
      <line class="cls-2" x1="273.44" y1="793.75" x2="209.26" y2="785.1"/>
    </g>
    <g>
      <line class="cls-2" x1="700.32" y1="171.08" x2="752.33" y2="132.49"/>
      <line class="cls-2" x1="707.03" y1="125.79" x2="745.62" y2="177.79"/>
    </g>
    <g>
      <line class="cls-2" x1="740.98" y1="241.21" x2="797.21" y2="209.07"/>
      <line class="cls-2" x1="753.03" y1="197.03" x2="785.16" y2="253.25"/>
    </g>
    <g>
      <line class="cls-2" x1="126.57" y1="503.9" x2="90.75" y2="557.85"/>
      <line class="cls-2" x1="135.64" y1="548.78" x2="81.68" y2="512.97"/>
    </g>
    <g>
      <line class="cls-2" x1="268.22" y1="307.94" x2="215.01" y2="344.86"/>
      <line class="cls-2" x1="260.07" y1="353" x2="223.15" y2="299.8"/>
    </g>
    <g>
      <line class="cls-2" x1="211.3" y1="537.84" x2="178.87" y2="593.9"/>
      <line class="cls-2" x1="223.11" y1="582.08" x2="167.06" y2="549.66"/>
    </g>
    <g>
      <line class="cls-2" x1="603.77" y1="898.32" x2="637.96" y2="953.31"/>
      <line class="cls-2" x1="648.37" y1="908.72" x2="593.37" y2="942.91"/>
    </g>
    <g>
      <line class="cls-2" x1="357.12" y1="295.39" x2="374.12" y2="232.9"/>
      <line class="cls-2" x1="334.38" y1="255.64" x2="396.87" y2="272.64"/>
    </g>
    <g>
      <line class="cls-2" x1="297.62" y1="340.56" x2="305.03" y2="276.23"/>
      <line class="cls-2" x1="269.16" y1="304.69" x2="333.49" y2="312.1"/>
    </g>
    <g>
      <line class="cls-2" x1="202.82" y1="393.18" x2="157.24" y2="439.18"/>
      <line class="cls-2" x1="203.03" y1="438.97" x2="157.03" y2="393.39"/>
    </g>
    <g>
      <line class="cls-2" x1="460.84" y1="777.61" x2="476.85" y2="840.36"/>
      <line class="cls-2" x1="500.22" y1="800.98" x2="437.47" y2="816.99"/>
    </g>
    <g>
      <line class="cls-2" x1="298.24" y1="649.65" x2="282.2" y2="712.4"/>
      <line class="cls-2" x1="321.59" y1="689.05" x2="258.85" y2="673.01"/>
    </g>
    <g>
      <line class="cls-2" x1="578.83" y1="182.16" x2="622.44" y2="134.28"/>
      <line class="cls-2" x1="576.7" y1="136.42" x2="624.57" y2="180.03"/>
    </g>
    <g>
      <line class="cls-2" x1="817.65" y1="245.06" x2="876.93" y2="218.99"/>
      <line class="cls-2" x1="834.25" y1="202.39" x2="860.32" y2="261.67"/>
    </g>
    <g>
      <line class="cls-2" x1="471.04" y1="855.84" x2="490.94" y2="917.47"/>
      <line class="cls-2" x1="511.8" y1="876.71" x2="450.18" y2="896.61"/>
    </g>
    <g>
      <line class="cls-2" x1="363.59" y1="166.5" x2="387.97" y2="106.51"/>
      <line class="cls-2" x1="345.79" y1="124.31" x2="405.78" y2="148.69"/>
    </g>
    <g>
      <line class="cls-2" x1="513.42" y1="189.25" x2="551.12" y2="136.59"/>
      <line class="cls-2" x1="505.94" y1="144.07" x2="558.6" y2="181.77"/>
    </g>
    <g>
      <line class="cls-2" x1="461.98" y1="911.95" x2="482.11" y2="973.49"/>
      <line class="cls-2" x1="502.82" y1="932.65" x2="441.27" y2="952.79"/>
    </g>
    <g>
      <line class="cls-2" x1="697.5" y1="767.69" x2="745.09" y2="811.61"/>
      <line class="cls-2" x1="743.26" y1="765.85" x2="699.34" y2="813.44"/>
    </g>
    <g>
      <line class="cls-2" x1="793.98" y1="375.48" x2="852.96" y2="348.74"/>
      <line class="cls-2" x1="810.1" y1="332.62" x2="836.84" y2="391.6"/>
    </g>
    <g>
      <line class="cls-2" x1="436.13" y1="181.06" x2="466.55" y2="123.89"/>
      <line class="cls-2" x1="422.75" y1="137.27" x2="479.92" y2="167.69"/>
    </g>
    <g>
      <line class="cls-2" x1="241.81" y1="505.52" x2="206.02" y2="559.49"/>
      <line class="cls-2" x1="250.9" y1="550.4" x2="196.93" y2="514.61"/>
    </g>
    <g>
      <line class="cls-2" x1="549.46" y1="156.87" x2="590.4" y2="106.69"/>
      <line class="cls-2" x1="544.84" y1="111.31" x2="595.01" y2="152.25"/>
    </g>
    <g>
      <line class="cls-2" x1="927.59" y1="488.04" x2="992.32" y2="490.07"/>
      <line class="cls-2" x1="960.97" y1="456.69" x2="958.94" y2="521.42"/>
    </g>
    <g>
      <line class="cls-2" x1="390.51" y1="831.71" x2="400.34" y2="895.72"/>
      <line class="cls-2" x1="427.43" y1="858.8" x2="363.42" y2="868.63"/>
    </g>
    <g>
      <line class="cls-2" x1="173.91" y1="587.01" x2="145.88" y2="645.39"/>
      <line class="cls-2" x1="189.09" y1="630.22" x2="130.7" y2="602.19"/>
    </g>
    <g>
      <line class="cls-2" x1="775.43" y1="674.08" x2="833.47" y2="702.79"/>
      <line class="cls-2" x1="818.81" y1="659.41" x2="790.1" y2="717.46"/>
    </g>
    <g>
      <line class="cls-2" x1="898.91" y1="465.99" x2="963.66" y2="465.1"/>
      <line class="cls-2" x1="930.85" y1="433.17" x2="931.73" y2="497.92"/>
    </g>
    <g>
      <line class="cls-2" x1="892.15" y1="577.16" x2="955.76" y2="589.26"/>
      <line class="cls-2" x1="930.01" y1="551.4" x2="917.9" y2="615.02"/>
    </g>
    <g>
      <line class="cls-2" x1="649.04" y1="792.88" x2="690.78" y2="842.4"/>
      <line class="cls-2" x1="694.67" y1="796.77" x2="645.15" y2="838.51"/>
    </g>
    <g>
      <line class="cls-2" x1="881.03" y1="443.37" x2="945.67" y2="439.44"/>
      <line class="cls-2" x1="911.39" y1="409.09" x2="915.32" y2="473.73"/>
    </g>
    <g>
      <line class="cls-2" x1="354.31" y1="749.73" x2="354.45" y2="814.49"/>
      <line class="cls-2" x1="386.76" y1="782.04" x2="322" y2="782.18"/>
    </g>
    <g>
      <line class="cls-2" x1="598.31" y1="191.2" x2="643.67" y2="144.98"/>
      <line class="cls-2" x1="597.88" y1="145.41" x2="644.1" y2="190.77"/>
    </g>
    <g>
      <line class="cls-2" x1="896.71" y1="398.42" x2="960.94" y2="390.15"/>
      <line class="cls-2" x1="924.68" y1="362.17" x2="932.96" y2="426.4"/>
    </g>
    <g>
      <line class="cls-2" x1="279.04" y1="675.02" x2="264.69" y2="738.17"/>
      <line class="cls-2" x1="303.44" y1="713.77" x2="240.29" y2="699.42"/>
    </g>
    <g>
      <line class="cls-2" x1="783.8" y1="238.24" x2="841.74" y2="209.31"/>
      <line class="cls-2" x1="798.3" y1="194.81" x2="827.23" y2="252.75"/>
    </g>
    <g>
      <line class="cls-2" x1="561.73" y1="162.13" x2="603.73" y2="112.84"/>
      <line class="cls-2" x1="558.08" y1="116.48" x2="607.37" y2="158.48"/>
    </g>
    <line class="cls-2" x1="393.72" y1="888.78" x2="407.46" y2="956.78"/>
    <line class="cls-2" x1="434.59" y1="915.91" x2="366.59" y2="929.65"/>
  </g>
  <g id="NUCLEUS">
    <path d="M588.56,542.27c0-1.55-.11-3.07-.3-4.57-.11-.82-.23-1.64-.39-2.44-.17-.84-.38-1.67-.61-2.49-.33-1.16-.71-2.3-1.15-3.41-.92-2.34-2.09-4.57-3.47-6.63-1.47-2.2-3.18-4.21-5.09-6.02-.64-.6-1.29-1.19-1.98-1.75-.78-.64-1.59-1.25-2.43-1.82-1.74-1.19-3.6-2.22-5.55-3.08-2.53-1.12-5.21-1.95-8-2.45-.65-.12-1.3-.22-1.96-.3-.58-.07-1.17-.13-1.76-.17-.38-.03-.75-.05-1.13-.07-.47-.02-.95-.04-1.42-.04-.66,0-1.31.02-1.95.06-2.39.13-4.73.5-6.97,1.09-1.8.47-3.53,1.08-5.2,1.81-1.96.86-3.83,1.89-5.59,3.07-2.23,1.51-4.28,3.28-6.11,5.24-1.14,1.22-2.19,2.53-3.14,3.91-.84,1.21-1.61,2.48-2.29,3.8-.46.88-.89,1.79-1.28,2.71-.31.74-.59,1.5-.85,2.27-1.09,3.23-1.72,6.66-1.83,10.23,0,.05,0,.09,0,.14,0,.3-.02.6-.02.9,0,.78.03,1.55.08,2.32.09,1.42.27,2.82.53,4.19.08.45.18.89.28,1.33.31,1.38.7,2.73,1.17,4.05.56,1.58,1.24,3.1,2.01,4.56.24.45.48.89.74,1.33.17.28.33.57.51.85.71,1.13,1.48,2.22,2.31,3.27,1.52,1.92,3.24,3.68,5.12,5.25,2.12,1.76,4.46,3.28,6.96,4.51.79.39,1.59.74,2.41,1.07.81.33,1.64.63,2.48.9,1.11.35,2.24.65,3.4.89.08.02.16.03.23.05,2.27.46,4.61.7,7.01.7,2.09,0,4.13-.19,6.11-.54,2.66-.46,5.21-1.22,7.63-2.24.08-.03.15-.07.23-.1.89-.38,1.76-.8,2.61-1.26,1.11-.59,2.18-1.24,3.21-1.94,1.11-.76,2.17-1.58,3.19-2.45,2.96-2.55,5.49-5.58,7.47-8.98,2.42-4.15,4.02-8.85,4.57-13.86.14-1.27.22-2.56.22-3.87Z"/>
  </g>
</svg>