<?xml version="1.0" encoding="UTF-8"?>
<svg id="TEXT" xmlns="http://www.w3.org/2000/svg" viewBox="0 0 690.82 503.07">
  <path d="M75.5,222.41h17.69c21.62,0,62.61-61.77,62.61-92.37v-16.85c0-31.16-38.75-92.93-62.61-92.93h-17.69c-21.62,0-62.61,61.77-62.61,92.93v16.85c0,30.6,40.99,92.37,62.61,92.37ZM39.57,109.82c0-16,20.21-53.06,35.38-53.06h18.25c15.16,0,35.94,37.06,35.94,53.06v23.87c0,14.88-20.78,52.22-35.94,52.22h-18.25c-15.16,0-35.38-36.78-35.38-52.22v-23.87Z"/>
  <path d="M266.14,185.91h-26.11c-8.42,0-25.83-4.77-29.48-19.65h-28.64c4.21,29.48,43.8,56.15,62.33,56.15h22.46c17.13,0,57-31.16,57-50.82v-12.63c0-13.48-19.09-39.03-35.09-42.68l-56.43-13.2c-4.77-1.12-15.16-15.16-15.16-17.97v-8.42c0-9.55,19.09-19.93,26.67-19.93h17.13c9.26,0,23.58,7.58,27.8,19.65h27.79c-3.65-25.55-36.22-56.15-57.84-56.15h-16c-16.85,0-55.87,33.69-55.87,53.91v12.63c0,12.35,17.13,37.9,33.69,41.83l55.03,12.63c5.33,1.12,17.41,12.07,17.41,17.69v8.42c0,9.55-19.09,18.53-26.67,18.53Z"/>
  <path d="M84.63,286.28H28.76v196.53h55.87c36.78,0,77.77-63.17,77.77-88.16v-19.65c0-25.55-40.99-88.72-77.77-88.72ZM134.32,394.09c0,14.88-24.99,53.62-55.59,53.62h-23.87v-126.34h23.87c30.6,0,55.59,38.46,55.59,54.47v18.25Z"/>
  <path d="M242.29,286.28l-54.19,196.53h26.67l14.88-54.47h63.45l14.88,54.47h26.67l-54.19-196.53h-38.18ZM238.64,394.65l16.29-59.52h12.91l16.29,59.52h-45.48Z"/>
  <polygon points="360.04 321.37 416.2 321.37 416.2 482.81 441.47 482.81 441.47 321.37 497.62 321.37 497.62 286.28 360.04 286.28 360.04 321.37"/>
  <path d="M578.19,286.28l-54.19,196.53h26.67l14.88-54.47h63.45l14.88,54.47h26.67l-54.19-196.53h-38.18ZM574.54,394.65l16.29-59.52h12.91l16.29,59.52h-45.48Z"/>
  <path d="M673.67,166.8c1.79-1.63,1.92-4.4.3-6.2l-11.54-12.87c-1.62-1.81-4.4-1.97-6.21-.36l-15.28,12.34c-1.73,1.53-4.36,1.47-6.01-.15l-35.36-34.52c-1.83-1.78-1.77-4.74.13-6.44l26.79-24.1c1.92-1.73,3.02-4.19,3.04-6.77l.02-36.25c0-1.89-.77-3.69-2.14-4.99-5.54-5.28-17.63-18.56-22.8-23.03-3.84-3.32-3.95-3.18-9.03-3.18h-29.13c-.34,0-.68.03-1.01.11-3.47.85-4.84,2.57-7.45,5.28-8.46,8.79-9.88,9.9-20.58,20.83-.82.82-1.89,1.96-2.8,2.94-1.2,1.29-1.86,2.99-1.86,4.75v28.93c0,4.11,1.41,7.5,4.08,10.63,4.86,5.7,15.99,16.7,23.12,23.92,1.77,1.8,1.68,4.71-.21,6.39-6.73,5.99-21.65,19.33-27.91,25.34-3.48,3.35-5.78,7.74-5.78,12.59,0,14.21,0,10.68,0,25.93,0,.21.01.43.04.64.51,3.93,1.5,7.45,4.3,10.31q8.66,8.84,18.83,18.8c.28.27.76.7,1.07.94,3.58,2.65,7.56,3.57,12.05,3.57,12.66,0,27.92-.01,41.29-.01.21,0,.54-.01.75-.03,3.84-.33,7.61-1.02,10.9-3.11.17-.11.33-.22.48-.35l18.59-15.22c1.75-1.44,4.31-1.31,5.92.29l14.75,14.71c.12.11.23.22.36.32,1.56,1.25,4.38,2.87,6.37,3.31.27.06.55.08.83.08h7.32c2.44,0,4.42-1.98,4.42-4.42v-18.75s-9.09-9.4-16.98-17.51c-.02-.5,8.67-7.66,16.34-14.68ZM559.39,77.22v-9.96c0-2.48.97-4.86,2.72-6.62,3.27-3.3,8.66-8.7,12.02-11.76,1.15-1.05,1.8-1.32,3.41-1.32h11.33c1.68,0,2.53.89,3.71,1.95,1.99,1.78,5.63,5.48,7.31,7.52.11.13.23.28.36.44.62.78.97,1.75.97,2.74l.1,17.79c.01,2.39-.92,4.69-2.62,6.38-4.53,4.53-10.79,12.69-15.64,16.94-1.76,1.54-4.4,1.44-6.04-.22l-15.62-18.82c-1.29-1.37-2.01-3.18-2.01-5.06ZM617.12,182.11c-4.14,3.94-8.6,7.54-12.86,11.35-.26.23-.55.44-.86.6-.6.32-1.25.49-1.93.52-13.54.49-21.23.43-34.76.07-1.02-.03-2.01-.39-2.78-1.07,0,0-.01-.01-.02-.02-4.16-3.72-8.87-8.09-8.87-9.65,0-2.44-.58-11.12-.48-16.35.02-1.2.54-2.33,1.43-3.14,4.22-3.86,14.28-15.74,20.31-21.21,1.74-1.58,4.42-1.52,6.09.14l35.51,38.39c-.31.02-.57.17-.79.38Z"/>
</svg>