<?xml version="1.0" encoding="UTF-8"?>
<svg id="CROSSES" xmlns="http://www.w3.org/2000/svg" viewBox="0 0 1080 1080">
  <defs>
    <style>
      .cls-1 {
        fill: none;
        stroke: #6E31FF;
        stroke-miterlimit: 10;
        stroke-width: 2.83px;
      }
    </style>
  </defs>
  <g>
    <line class="cls-1" x1="171.61" y1="652.39" x2="149.69" y2="713.33"/>
    <line class="cls-1" x1="191.12" y1="693.82" x2="130.18" y2="671.9"/>
  </g>
  <g>
    <line class="cls-1" x1="698.57" y1="832.88" x2="743.09" y2="879.9"/>
    <line class="cls-1" x1="744.34" y1="834.13" x2="697.32" y2="878.65"/>
  </g>
  <g>
    <line class="cls-1" x1="183.69" y1="600.06" x2="157.14" y2="659.12"/>
    <line class="cls-1" x1="199.95" y1="642.86" x2="140.88" y2="616.32"/>
  </g>
  <g>
    <line class="cls-1" x1="665.6" y1="826.24" x2="707.58" y2="875.54"/>
    <line class="cls-1" x1="711.24" y1="829.9" x2="661.94" y2="871.88"/>
  </g>
  <g>
    <line class="cls-1" x1="216.26" y1="334.12" x2="166.32" y2="375.34"/>
    <line class="cls-1" x1="211.9" y1="379.7" x2="170.68" y2="329.76"/>
  </g>
  <g>
    <line class="cls-1" x1="773.87" y1="807.81" x2="824.6" y2="848.07"/>
    <line class="cls-1" x1="819.37" y1="802.58" x2="779.1" y2="853.3"/>
  </g>
  <g>
    <line class="cls-1" x1="199.39" y1="734.91" x2="186.02" y2="798.27"/>
    <line class="cls-1" x1="224.39" y1="773.27" x2="161.02" y2="759.91"/>
  </g>
  <g>
    <line class="cls-1" x1="232.03" y1="376.6" x2="184.44" y2="420.52"/>
    <line class="cls-1" x1="230.2" y1="422.36" x2="186.28" y2="374.77"/>
  </g>
  <g>
    <line class="cls-1" x1="245.68" y1="757.34" x2="237.02" y2="821.51"/>
    <line class="cls-1" x1="273.44" y1="793.75" x2="209.26" y2="785.1"/>
  </g>
  <g>
    <line class="cls-1" x1="700.32" y1="171.08" x2="752.33" y2="132.49"/>
    <line class="cls-1" x1="707.03" y1="125.79" x2="745.62" y2="177.79"/>
  </g>
  <g>
    <line class="cls-1" x1="740.98" y1="241.21" x2="797.21" y2="209.07"/>
    <line class="cls-1" x1="753.03" y1="197.03" x2="785.16" y2="253.25"/>
  </g>
  <g>
    <line class="cls-1" x1="126.57" y1="503.9" x2="90.75" y2="557.85"/>
    <line class="cls-1" x1="135.64" y1="548.78" x2="81.68" y2="512.97"/>
  </g>
  <g>
    <line class="cls-1" x1="268.22" y1="307.94" x2="215.01" y2="344.86"/>
    <line class="cls-1" x1="260.07" y1="353" x2="223.15" y2="299.8"/>
  </g>
  <g>
    <line class="cls-1" x1="211.3" y1="537.84" x2="178.87" y2="593.9"/>
    <line class="cls-1" x1="223.11" y1="582.08" x2="167.06" y2="549.66"/>
  </g>
  <g>
    <line class="cls-1" x1="603.77" y1="898.32" x2="637.96" y2="953.31"/>
    <line class="cls-1" x1="648.37" y1="908.72" x2="593.37" y2="942.91"/>
  </g>
  <g>
    <line class="cls-1" x1="357.12" y1="295.39" x2="374.12" y2="232.9"/>
    <line class="cls-1" x1="334.38" y1="255.64" x2="396.87" y2="272.64"/>
  </g>
  <g>
    <line class="cls-1" x1="297.62" y1="340.56" x2="305.03" y2="276.23"/>
    <line class="cls-1" x1="269.16" y1="304.69" x2="333.49" y2="312.1"/>
  </g>
  <g>
    <line class="cls-1" x1="202.82" y1="393.18" x2="157.24" y2="439.18"/>
    <line class="cls-1" x1="203.03" y1="438.97" x2="157.03" y2="393.39"/>
  </g>
  <g>
    <line class="cls-1" x1="460.84" y1="777.61" x2="476.85" y2="840.36"/>
    <line class="cls-1" x1="500.22" y1="800.98" x2="437.47" y2="816.99"/>
  </g>
  <g>
    <line class="cls-1" x1="298.24" y1="649.65" x2="282.2" y2="712.4"/>
    <line class="cls-1" x1="321.59" y1="689.05" x2="258.85" y2="673.01"/>
  </g>
  <g>
    <line class="cls-1" x1="578.83" y1="182.16" x2="622.44" y2="134.28"/>
    <line class="cls-1" x1="576.7" y1="136.42" x2="624.57" y2="180.03"/>
  </g>
  <g>
    <line class="cls-1" x1="817.65" y1="245.06" x2="876.93" y2="218.99"/>
    <line class="cls-1" x1="834.25" y1="202.39" x2="860.32" y2="261.67"/>
  </g>
  <g>
    <line class="cls-1" x1="471.04" y1="855.84" x2="490.94" y2="917.47"/>
    <line class="cls-1" x1="511.8" y1="876.71" x2="450.18" y2="896.61"/>
  </g>
  <g>
    <line class="cls-1" x1="363.59" y1="166.5" x2="387.97" y2="106.51"/>
    <line class="cls-1" x1="345.79" y1="124.31" x2="405.78" y2="148.69"/>
  </g>
  <g>
    <line class="cls-1" x1="513.42" y1="189.25" x2="551.12" y2="136.59"/>
    <line class="cls-1" x1="505.94" y1="144.07" x2="558.6" y2="181.77"/>
  </g>
  <g>
    <line class="cls-1" x1="461.98" y1="911.95" x2="482.11" y2="973.49"/>
    <line class="cls-1" x1="502.82" y1="932.65" x2="441.27" y2="952.79"/>
  </g>
  <g>
    <line class="cls-1" x1="697.5" y1="767.69" x2="745.09" y2="811.61"/>
    <line class="cls-1" x1="743.26" y1="765.85" x2="699.34" y2="813.44"/>
  </g>
  <g>
    <line class="cls-1" x1="793.98" y1="375.48" x2="852.96" y2="348.74"/>
    <line class="cls-1" x1="810.1" y1="332.62" x2="836.84" y2="391.6"/>
  </g>
  <g>
    <line class="cls-1" x1="436.13" y1="181.06" x2="466.55" y2="123.89"/>
    <line class="cls-1" x1="422.75" y1="137.27" x2="479.92" y2="167.69"/>
  </g>
  <g>
    <line class="cls-1" x1="241.81" y1="505.52" x2="206.02" y2="559.49"/>
    <line class="cls-1" x1="250.9" y1="550.4" x2="196.93" y2="514.61"/>
  </g>
  <g>
    <line class="cls-1" x1="549.46" y1="156.87" x2="590.4" y2="106.69"/>
    <line class="cls-1" x1="544.84" y1="111.31" x2="595.01" y2="152.25"/>
  </g>
  <g>
    <line class="cls-1" x1="927.59" y1="488.04" x2="992.32" y2="490.07"/>
    <line class="cls-1" x1="960.97" y1="456.69" x2="958.94" y2="521.42"/>
  </g>
  <g>
    <line class="cls-1" x1="390.51" y1="831.71" x2="400.34" y2="895.72"/>
    <line class="cls-1" x1="427.43" y1="858.8" x2="363.42" y2="868.63"/>
  </g>
  <g>
    <line class="cls-1" x1="173.91" y1="587.01" x2="145.88" y2="645.39"/>
    <line class="cls-1" x1="189.09" y1="630.22" x2="130.7" y2="602.19"/>
  </g>
  <g>
    <line class="cls-1" x1="775.43" y1="674.08" x2="833.47" y2="702.79"/>
    <line class="cls-1" x1="818.81" y1="659.41" x2="790.1" y2="717.46"/>
  </g>
  <g>
    <line class="cls-1" x1="898.91" y1="465.99" x2="963.66" y2="465.1"/>
    <line class="cls-1" x1="930.85" y1="433.17" x2="931.73" y2="497.92"/>
  </g>
  <g>
    <line class="cls-1" x1="892.15" y1="577.16" x2="955.76" y2="589.26"/>
    <line class="cls-1" x1="930.01" y1="551.4" x2="917.9" y2="615.02"/>
  </g>
  <g>
    <line class="cls-1" x1="649.04" y1="792.88" x2="690.78" y2="842.4"/>
    <line class="cls-1" x1="694.67" y1="796.77" x2="645.15" y2="838.51"/>
  </g>
  <g>
    <line class="cls-1" x1="881.03" y1="443.37" x2="945.67" y2="439.44"/>
    <line class="cls-1" x1="911.39" y1="409.09" x2="915.32" y2="473.73"/>
  </g>
  <g>
    <line class="cls-1" x1="354.31" y1="749.73" x2="354.45" y2="814.49"/>
    <line class="cls-1" x1="386.76" y1="782.04" x2="322" y2="782.18"/>
  </g>
  <g>
    <line class="cls-1" x1="598.31" y1="191.2" x2="643.67" y2="144.98"/>
    <line class="cls-1" x1="597.88" y1="145.41" x2="644.1" y2="190.77"/>
  </g>
  <g>
    <line class="cls-1" x1="896.71" y1="398.42" x2="960.94" y2="390.15"/>
    <line class="cls-1" x1="924.68" y1="362.17" x2="932.96" y2="426.4"/>
  </g>
  <g>
    <line class="cls-1" x1="279.04" y1="675.02" x2="264.69" y2="738.17"/>
    <line class="cls-1" x1="303.44" y1="713.77" x2="240.29" y2="699.42"/>
  </g>
  <g>
    <line class="cls-1" x1="783.8" y1="238.24" x2="841.74" y2="209.31"/>
    <line class="cls-1" x1="798.3" y1="194.81" x2="827.23" y2="252.75"/>
  </g>
  <g>
    <line class="cls-1" x1="561.73" y1="162.13" x2="603.73" y2="112.84"/>
    <line class="cls-1" x1="558.08" y1="116.48" x2="607.37" y2="158.48"/>
  </g>
  <line class="cls-1" x1="393.72" y1="888.78" x2="407.46" y2="956.78"/>
  <line class="cls-1" x1="434.59" y1="915.91" x2="366.59" y2="929.65"/>
</svg>